<?xml version="1.0" encoding="utf-8"?>
<!-- Generator: Adobe Illustrator 15.0.2, SVG Export Plug-In . SVG Version: 6.00 Build 0)  -->
<!DOCTYPE svg PUBLIC "-//W3C//DTD SVG 1.1//EN" "http://www.w3.org/Graphics/SVG/1.1/DTD/svg11.dtd">
<svg version="1.1" id="Layer_1" xmlns="http://www.w3.org/2000/svg" xmlns:xlink="http://www.w3.org/1999/xlink" x="0px" y="0px"
	 width="16.76px" height="16.728px" viewBox="0 0 16.76 16.728" enable-background="new 0 0 16.76 16.728" xml:space="preserve">
<g>
	<g>
		<path fill-rule="evenodd" clip-rule="evenodd" fill="#EC008C" d="M16.174,11.192L13.33,8.349l2.812-2.812
			c0.781-0.781,0.781-2.048,0-2.829l-2.121-2.122c-0.781-0.781-2.048-0.781-2.829,0L8.38,3.398L5.567,0.586
			c-0.781-0.781-2.048-0.781-2.829,0L0.617,2.708c-0.781,0.781-0.781,2.047,0,2.829L3.43,8.349l-2.844,2.844
			c-0.781,0.781-0.781,2.048,0,2.828l2.121,2.122c0.781,0.78,2.048,0.78,2.829,0l2.844-2.844l2.844,2.844
			c0.781,0.78,2.048,0.78,2.829,0l2.121-2.122C16.955,13.24,16.955,11.974,16.174,11.192z"/>
	</g>
</g>
</svg>
